Coordinates
version=1
nRows=7
nColumns=46
inDegrees=yes

Units are S.I. units (second, meters, Newtons, ...)
Angles are in degrees.

endheader
time	pelvis_tilt	pelvis_list	pelvis_rotation	pelvis_tx	pelvis_ty	pelvis_tz	bb_angle	bb_tx	bb_ty	bb_tz	hip_flexion_r	hip_adduction_r	hip_rotation_r	knee_angle_r	knee_angle_r_beta	ankle_angle_r	subtalar_angle_r	mtp_angle_r	crank_angle_r	hip_flexion_l	hip_adduction_l	hip_rotation_l	knee_angle_l	knee_angle_l_beta	ankle_angle_l	subtalar_angle_l	mtp_angle_l	crank_angle_l	lumbar_extension	lumbar_bending	lumbar_rotation	arm_flex_r	arm_add_r	arm_rot_r	elbow_flex_r	pro_sup_r	wrist_flex_r	wrist_dev_r	arm_flex_l	arm_add_l	arm_rot_l	elbow_flex_l	pro_sup_l	wrist_flex_l	wrist_dev_l
      7.50000000	    -12.04482061	     -5.35964604	      1.40360409	      0.09599057	      1.14603126	     -0.24488517	      0.00000000	      0.50000000	      0.00000000	      0.25000000	     87.61074319	     -8.37634908	     -3.83318352	    103.19910520	      1.80116417	     23.53287919	     -2.01622098	      0.00000000	      0.00000000	     42.22808015	    -12.28637384	     -5.60781925	     49.67175647	      0.86693570	     11.33047568	      6.97427922	      0.00000000	      0.00000000	    -53.94590059	      3.35438102	      6.14965222	     89.58436082	    -16.48831103	     43.35270293	     35.79350366	     25.92974852	      0.00000000	      0.00000000	     89.58961598	     -4.64883571	     38.42415778	     28.63063187	     22.65742860	      0.00000000	      0.00000000
      7.50500000	    -11.98022125	     -5.42626223	      1.22282636	      0.09602759	      1.14537511	     -0.24481079	      0.00000000	      0.50000000	      0.00000000	      0.25000000	     87.75548519	     -8.27182149	     -3.89618681	    103.32327810	      1.80333140	     23.12710490	     -2.03344380	      0.00000000	      0.00000000	     42.13934833	    -12.43831108	     -5.64276639	     49.78607795	      0.86893098	     11.74269783	      6.95592976	      0.00000000	      0.00000000	    -53.92111035	      3.29296802	      6.24470390	     89.59522190	    -16.23811991	     43.14852367	     34.89527580	     28.92906217	      0.00000000	      0.00000000	     89.58061724	     -4.53265601	     37.32699944	     27.89296356	     26.51555580	      0.00000000	      0.00000000
      7.51000000	    -11.83082819	     -5.45965115	      1.15657652	      0.09600764	      1.14488517	     -0.24474230	      0.00000000	      0.50000000	      0.00000000	      0.25000000	     87.80641130	     -8.28106519	     -3.92910453	    103.50301678	      1.80646843	     22.78718379	     -1.97027931	      0.00000000	      0.00000000	     41.97315407	    -12.49857660	     -5.62797329	     49.85398469	      0.87011618	     12.04690827	      6.92113973	      0.00000000	      0.00000000	    -54.01528765	      3.31311945	      6.26890135	     89.58994178	    -16.01500028	     42.97586995	     35.49133462	     25.44532132	      0.00000000	      0.00000000	     89.58696496	     -4.86370483	     38.56108205	     28.70896946	     22.40368066	      0.00000000	      0.00000000
      7.51500000	    -11.76081477	     -5.53765567	      1.07512558	      0.09602763	      1.14432237	     -0.24461505	      0.00000000	      0.50000000	      0.00000000	      0.25000000	     87.91797427	     -8.25501309	     -3.97412685	    103.67638598	      1.80949429	     22.47601445	     -1.83413511	      0.00000000	      0.00000000	     41.89102482	    -12.62141342	     -5.62069158	     49.90567903	      0.87101841	     12.36833536	      6.95370004	      0.00000000	      0.00000000	    -54.02792344	      3.31471614	      6.40505121	     89.58340520	    -15.78198301	     41.99987908	     34.66008155	     29.04492821	      0.00000000	      0.00000000	     89.58492113	     -4.26288382	     36.36340488	     27.61785965	     26.36212874	      0.00000000	      0.00000000
      7.52000000	    -11.63425359	     -5.59141312	      0.96645161	      0.09609604	      1.14389099	     -0.24451673	      0.00000000	      0.50000000	      0.00000000	      0.25000000	     87.95857575	     -8.22104036	     -4.02064479	    103.84706775	      1.81247325	     22.20596534	     -1.74076059	      0.00000000	      0.00000000	     41.72846796	    -12.76272879	     -5.71894910	     49.93723869	      0.87156923	     12.66458338	      7.02648058	      0.00000000	      0.00000000	    -54.09049130	      3.29603365	      6.49492314	     89.59467497	    -16.16742099	     43.02174044	     34.63785069	     31.37629506	      0.00000000	      0.00000000	     89.58836014	     -4.76597795	     37.58822514	     27.47017550	     28.82108599	      0.00000000	      0.00000000
      7.52500000	    -11.57969560	     -5.66936824	      0.96928569	      0.09609834	      1.14349722	     -0.24418434	      0.00000000	      0.50000000	      0.00000000	      0.25000000	     88.03778128	     -8.23391390	     -4.09619349	    104.01355265	      1.81537896	     21.89066999	     -1.73446637	      0.00000000	      0.00000000	     41.66822791	    -12.86745548	     -5.70068287	     49.90552041	      0.87101565	     12.84910373	      7.15199859	      0.00000000	      0.00000000	    -54.09108598	      3.34715033	      6.51105412	     89.58887832	    -15.91310614	     42.63838781	     34.39635152	     31.44208656	      0.00000000	      0.00000000	     89.59239125	     -4.65036461	     37.11430933	     27.30256200	     28.89178916	      0.00000000	      0.00000000
      7.53000000	    -11.45416920	     -5.70035006	      0.93205368	      0.09613567	      1.14321010	     -0.24402647	      0.00000000	      0.50000000	      0.00000000	      0.25000000	     88.03902018	     -8.23603105	     -4.12283256	    104.18695399	      1.81840538	     21.76627203	     -1.72221688	      0.00000000	      0.00000000	     41.51301314	    -12.96579428	     -5.81211565	     49.88326966	      0.87062730	     13.06084452	      7.22361577	      0.00000000	      0.00000000	    -54.18649030	      3.35873454	      6.50747905	     89.58856529	    -15.64488827	     42.25938915	     34.17332544	     31.68080009	      0.00000000	      0.00000000	     89.58868895	     -4.61363487	     36.51673965	     27.23199892	     29.14296634	      0.00000000	      0.00000000
